<?xml version="1.0" standalone="no"?>
<!DOCTYPE svg PUBLIC "-//W3C//DTD SVG 20010904//EN"
 "http://www.w3.org/TR/2001/REC-SVG-20010904/DTD/svg10.dtd">
<svg version="1.0" xmlns="http://www.w3.org/2000/svg"
 width="512.000000pt" height="512.000000pt" viewBox="0 0 512.000000 512.000000"
 preserveAspectRatio="xMidYMid meet">
<metadata>
Created by potrace 1.14, written by Peter Selinger 2001-2017
</metadata>
<g transform="translate(0.000000,512.000000) scale(0.100000,-0.100000)"
fill="#000000" stroke="none">
<path d="M470 4954 c-74 -25 -167 -85 -203 -131 -10 -13 -25 -30 -33 -38 -24
-24 -73 -137 -84 -194 -7 -36 -10 -724 -9 -2045 0 -2181 -4 -2037 60 -2156 52
-98 142 -176 254 -221 l60 -24 2020 -2 c1317 -2 2036 1 2065 7 128 29 259 127
319 240 65 121 61 -26 61 2169 0 2197 4 2049 -61 2171 -51 97 -154 184 -264
226 -48 18 -113 19 -2080 21 l-2030 3 -75 -26z"/>
</g>
</svg>
